<svg xmlns="http://www.w3.org/2000/svg" viewBox="0 0 112 136">
  <defs>
    <linearGradient id="orange" x1="0" y1="0" x2="0" y2="1">
      <stop stop-color="#ffc48a"/>
      <stop offset=".35" stop-color="#f5842f"/>
      <stop offset=".7" stop-color="#e0561c"/>
      <stop offset="1" stop-color="#b8380a"/>
    </linearGradient>
    <g id="pixel">
      <rect width="16" height="16" fill="url(#orange)"/>
      <path d="M0 0h16v4H3v12H0z" fill="#fff3c4" opacity=".5"/>
      <path d="M13 4h3v12H0v-4h13z" fill="#5a2600" opacity=".45"/>
    </g>
  </defs>

  <g fill="#150c00">
    <rect x="12" y="24" width="24" height="24"/><rect x="12" y="40" width="24" height="24"/>
    <rect x="12" y="56" width="24" height="24"/><rect x="12" y="72" width="24" height="24"/>
    <rect x="12" y="88" width="24" height="24"/><rect x="28" y="8" width="24" height="24"/>
    <rect x="28" y="72" width="24" height="24"/><rect x="28" y="104" width="24" height="24"/>
    <rect x="44" y="8" width="24" height="24"/><rect x="44" y="40" width="24" height="24"/>
    <rect x="44" y="56" width="24" height="24"/><rect x="44" y="104" width="24" height="24"/>
    <rect x="60" y="8" width="24" height="24"/><rect x="60" y="24" width="24" height="24"/>
    <rect x="60" y="104" width="24" height="24"/><rect x="76" y="24" width="24" height="24"/>
    <rect x="76" y="40" width="24" height="24"/><rect x="76" y="56" width="24" height="24"/>
    <rect x="76" y="72" width="24" height="24"/><rect x="76" y="88" width="24" height="24"/>
  </g>

  <g>
    <use href="#pixel" x="16" y="28"/><use href="#pixel" x="16" y="44"/>
    <use href="#pixel" x="16" y="60"/><use href="#pixel" x="16" y="76"/>
    <use href="#pixel" x="16" y="92"/><use href="#pixel" x="32" y="12"/>
    <use href="#pixel" x="32" y="76"/><use href="#pixel" x="32" y="108"/>
    <use href="#pixel" x="48" y="12"/><use href="#pixel" x="48" y="44"/>
    <use href="#pixel" x="48" y="60"/><use href="#pixel" x="48" y="108"/>
    <use href="#pixel" x="64" y="12"/><use href="#pixel" x="64" y="28"/>
    <use href="#pixel" x="64" y="108"/><use href="#pixel" x="80" y="28"/>
    <use href="#pixel" x="80" y="44"/><use href="#pixel" x="80" y="60"/>
    <use href="#pixel" x="80" y="76"/><use href="#pixel" x="80" y="92"/>
  </g>
</svg>
